<svg width="237" height="248" viewBox="0 0 237 248" fill="none" xmlns="http://www.w3.org/2000/svg">
<g clip-path="url(#clip0_76_4766)">
<ellipse cx="118.5" cy="123.929" rx="118.5" ry="123.181" fill="#C1C1C1"/>
</g>
<mask id="mask0_76_4766" style="mask-type:alpha" maskUnits="userSpaceOnUse" x="74" y="72" width="89" height="104">
<path fill-rule="evenodd" clip-rule="evenodd" d="M93.8125 98.2662C93.8125 83.8951 104.675 72.6035 118.5 72.6035C132.325 72.6035 143.188 83.8951 143.188 98.2662C143.188 112.637 132.325 123.929 118.5 123.929C104.675 123.929 93.8125 112.637 93.8125 98.2662ZM162.938 159.856V170.122C162.938 173.201 160.963 175.254 158 175.254C155.037 175.254 153.062 173.201 153.062 170.122V159.856C153.062 151.131 146.644 144.459 138.25 144.459H98.75C90.3562 144.459 83.9375 151.131 83.9375 159.856V170.122C83.9375 173.201 81.9625 175.254 79 175.254C76.0375 175.254 74.0625 173.201 74.0625 170.122V159.856C74.0625 145.485 84.925 134.194 98.75 134.194H138.25C152.075 134.194 162.938 145.485 162.938 159.856ZM118.5 113.664C110.106 113.664 103.688 106.991 103.688 98.2662C103.688 89.5409 110.106 82.8686 118.5 82.8686C126.894 82.8686 133.312 89.5409 133.312 98.2662C133.312 106.991 126.894 113.664 118.5 113.664Z" fill="white"/>
</mask>
<g mask="url(#mask0_76_4766)">
<rect x="59.25" y="62.3384" width="118.5" height="123.181" fill="white"/>
</g>
<defs>
<clipPath id="clip0_76_4766">
<rect width="237" height="246.361" fill="white" transform="translate(0 0.748047)"/>
</clipPath>
</defs>
</svg>
