<svg width="24" height="24" viewBox="0 0 24 24" fill="none" xmlns="http://www.w3.org/2000/svg">
<path d="M5.96249 21.4875H18.0375C18.825 21 19.5 20.4 20.1375 19.7625H3.86249C4.49999 20.4375 5.21249 21 5.96249 21.4875Z" fill="white"/>
<path d="M12 23.25C14.2125 23.25 16.275 22.6125 18.0375 21.4875H5.96252C7.72502 22.6125 9.78752 23.25 12 23.25Z" fill="#ED4C5C"/>
<path d="M1.61249 16.3125H22.3875C22.6125 15.75 22.8 15.1875 22.95 14.5875H1.04999C1.19999 15.1875 1.38749 15.75 1.61249 16.3125Z" fill="#ED4C5C"/>
<path d="M2.51249 18.0375H21.4875C21.825 17.475 22.125 16.9125 22.3875 16.3125H1.61249C1.87499 16.9125 2.17499 17.475 2.51249 18.0375Z" fill="white"/>
<path d="M3.86251 19.7625H20.1375C20.625 19.2375 21.1125 18.6375 21.4875 18.0375H2.51251C2.88751 18.675 3.37501 19.2375 3.86251 19.7625Z" fill="#ED4C5C"/>
<path d="M23.2125 11.1375H12V12H0.75C0.75 12.3 0.75 12.5625 0.7875 12.8625H23.2125C23.25 12.5625 23.25 12.3 23.25 12C23.25 11.7 23.25 11.4 23.2125 11.1375Z" fill="#ED4C5C"/>
<path d="M1.04998 14.5875H22.95C23.1 14.025 23.175 13.4625 23.2125 12.8625H0.787476C0.824976 13.425 0.937476 14.025 1.04998 14.5875Z" fill="white"/>
<path d="M12 11.1375H23.2125C23.175 10.5375 23.0625 9.975 22.95 9.4125H12V11.1375Z" fill="white"/>
<path d="M12 9.375H22.95C22.8 8.775 22.6125 8.2125 22.3875 7.65H12V9.375Z" fill="#ED4C5C"/>
<path d="M12 5.925H21.4875C21.075 5.2875 20.625 4.725 20.1375 4.2H12V5.925Z" fill="#ED4C5C"/>
<path d="M12 7.65H22.3875C22.125 7.05 21.825 6.45 21.4875 5.925H12V7.65Z" fill="white"/>
<path d="M18 2.475C16.2375 1.3875 14.2125 0.75 12 0.75V2.475H18Z" fill="#ED4C5C"/>
<path d="M12 4.2H20.1C19.4625 3.5625 18.75 2.9625 18 2.475H12V4.2Z" fill="white"/>
<path d="M6 2.475C5.2125 2.9625 4.5 3.5625 3.8625 4.2C3.3375 4.725 2.8875 5.325 2.5125 5.925C2.175 6.4875 1.8375 7.05 1.6125 7.65C1.3875 8.2125 1.2 8.775 1.05 9.375C0.9 9.9375 0.825 10.5 0.7875 11.1C0.75 11.4 0.75 11.7 0.75 12H12V0.75C9.7875 0.75 7.7625 1.3875 6 2.475Z" fill="#428BC1"/>
<path d="M9.375 10.125L9.5625 10.6875H10.125L9.675 11.0625L9.825 11.625L9.375 11.2875L8.925 11.625L9.075 11.0625L8.625 10.6875H9.1875L9.375 10.125Z" fill="white"/>
<path d="M6.375 10.125L6.5625 10.6875H7.125L6.675 11.0625L6.825 11.625L6.375 11.2875L5.925 11.625L6.075 11.0625L5.625 10.6875H6.1875L6.375 10.125Z" fill="white"/>
<path d="M3.375 10.125L3.5625 10.6875H4.125L3.675 11.0625L3.825 11.625L3.375 11.2875L2.925 11.625L3.075 11.0625L2.625 10.6875H3.1875L3.375 10.125Z" fill="white"/>
<path d="M10.875 7.875L11.0625 8.4375H11.625L11.175 8.8125L11.325 9.375L10.875 9.0375L10.425 9.375L10.575 8.8125L10.125 8.4375H10.6875L10.875 7.875Z" fill="white"/>
<path d="M7.875 7.875L8.0625 8.4375H8.625L8.175 8.8125L8.325 9.375L7.875 9.0375L7.425 9.375L7.575 8.8125L7.125 8.4375H7.6875L7.875 7.875Z" fill="white"/>
<path d="M4.875 7.875L5.0625 8.4375H5.625L5.175 8.8125L5.325 9.375L4.875 9.0375L4.425 9.375L4.575 8.8125L4.125 8.4375H4.6875L4.875 7.875Z" fill="white"/>
<path d="M1.42502 9.375L1.87502 9.0375L2.32502 9.375L2.13752 8.8125L2.58752 8.4375H2.06252L1.87502 7.875L1.68752 8.4375H1.31252C1.31252 8.475 1.27502 8.5125 1.27502 8.55L1.57502 8.775L1.42502 9.375Z" fill="white"/>
<path d="M9.375 5.625L9.5625 6.1875H10.125L9.675 6.5625L9.825 7.125L9.375 6.7875L8.925 7.125L9.075 6.5625L8.625 6.1875H9.1875L9.375 5.625Z" fill="white"/>
<path d="M6.375 5.625L6.5625 6.1875H7.125L6.675 6.5625L6.825 7.125L6.375 6.7875L5.925 7.125L6.075 6.5625L5.625 6.1875H6.1875L6.375 5.625Z" fill="white"/>
<path d="M3.375 5.625L3.5625 6.1875H4.125L3.675 6.5625L3.825 7.125L3.375 6.7875L2.925 7.125L3.075 6.5625L2.625 6.1875H3.1875L3.375 5.625Z" fill="white"/>
<path d="M10.875 3.375L11.0625 3.9375H11.625L11.175 4.3125L11.325 4.875L10.875 4.5375L10.425 4.875L10.575 4.3125L10.125 3.9375H10.6875L10.875 3.375Z" fill="white"/>
<path d="M7.875 3.375L8.0625 3.9375H8.625L8.175 4.3125L8.325 4.875L7.875 4.5375L7.425 4.875L7.575 4.3125L7.125 3.9375H7.6875L7.875 3.375Z" fill="white"/>
<path d="M4.42504 4.875L4.87504 4.5375L5.32504 4.875L5.13754 4.3125L5.58754 3.9375H5.02504L4.87504 3.375L4.68754 3.9375H4.16254L4.61254 4.275L4.42504 4.875Z" fill="white"/>
<path d="M9.375 1.125L9.5625 1.6875H10.125L9.675 2.0625L9.825 2.625L9.375 2.2875L8.925 2.625L9.075 2.0625L8.625 1.6875H9.1875L9.375 1.125Z" fill="white"/>
</svg>
